# xmcd CD database file
#
# Track frame offsets:
#	150
#	33877
#	69659
#	91148
#	113526
#	137799
#	167896
#	189530
#	235445
#	269998
#	288882
#	305324
#
# Disc length: 4716 seconds
#
# Revision: 0
# Processed by: cddbd v1.5.2PL0 Copyright (c) Steve Scherf et al.
# Submitted via: CDex 1.70beta2
#
DISCID=aa126a0c
DTITLE=Tangerine Dream  - The Anthology Decades - The Space Years Vol. 1
DYEAR=1900
DGENRE=New Age
TTITLE0=Boat to China
TTITLE1=Landing on 51
TTITLE2=Exit to Heaven
TTITLE3=Silver Pendulum
TTITLE4=Shy Shila
TTITLE5=Sunset in the Fifth System
TTITLE6=Borealis
TTITLE7=Run to Vegas
TTITLE8=The Seventh Folder
TTITLE9=Pink Ashes
TTITLE10=The Burning Hole
TTITLE11=Huckebee's Dream
EXTD=
EXTT0=
EXTT1=
EXTT2=
EXTT3=
EXTT4=
EXTT5=
EXTT6=
EXTT7=
EXTT8=
EXTT9=
EXTT10=
EXTT11=
PLAYORDER=
